<?xml version="1.0" standalone="no"?>
<!DOCTYPE svg PUBLIC "-//W3C//DTD SVG 20010904//EN"
 "http://www.w3.org/TR/2001/REC-SVG-20010904/DTD/svg10.dtd">
<svg version="1.0" xmlns="http://www.w3.org/2000/svg"
 width="778.000000pt" height="778.000000pt" viewBox="0 0 778.000000 778.000000"
 preserveAspectRatio="xMidYMid meet">
<metadata>
Created by potrace 1.14, written by Peter Selinger 2001-2017
</metadata>
<g transform="translate(0.000000,778.000000) scale(0.100000,-0.100000)"
fill="#000000" stroke="none">
<path d="M3960 7773 c-22 -9 -39 -29 -48 -55 -5 -13 -8 -211 -7 -441 0 -230
-3 -421 -6 -423 -4 -2 -112 -4 -240 -5 -128 0 -237 -3 -241 -5 -11 -7 39 -92
90 -152 73 -87 207 -176 297 -196 17 -4 46 -11 65 -16 l35 -9 -1 -248 c-2
-287 -1 -273 -14 -273 -5 0 -47 -24 -92 -54 -155 -101 -331 -195 -529 -284
-57 -26 -312 -117 -358 -128 -80 -19 -267 -55 -311 -60 -30 -3 -68 -7 -85 -9
-41 -6 -300 -6 -354 0 -48 5 -59 11 -66 41 -2 10 -20 73 -39 139 -19 66 -38
134 -41 152 -3 17 -9 42 -13 54 -8 21 -11 18 -29 -31 -22 -59 -31 -120 -37
-238 -2 -40 -5 -74 -7 -76 -2 -2 -31 6 -65 16 -59 19 -70 29 -365 324 l-303
304 17 62 c21 81 18 260 -7 333 -22 63 -61 140 -93 183 l-24 32 -39 -47 c-39
-49 -58 -71 -132 -156 -23 -26 -46 -53 -50 -60 -5 -8 -21 1 -50 30 -24 23 -50
49 -58 57 -8 8 -79 79 -157 158 -77 78 -158 160 -180 180 -21 20 -81 80 -133
133 -52 52 -105 98 -117 101 -61 16 -113 -26 -109 -87 3 -37 22 -58 337 -374
184 -184 334 -339 334 -344 0 -8 -195 -245 -305 -371 -12 -14 -38 -45 -58 -69
-21 -25 -45 -53 -56 -64 -15 -16 -16 -21 -5 -29 16 -10 78 -39 94 -43 6 -1 17
-5 25 -8 62 -24 221 -33 288 -16 156 40 232 80 327 173 l64 63 209 -210 210
-209 0 -531 c1 -574 5 -710 27 -857 3 -19 7 -53 10 -75 3 -22 7 -51 10 -65 3
-14 10 -47 15 -75 5 -27 11 -59 14 -70 5 -21 24 -99 30 -125 3 -8 9 -33 14
-55 8 -32 35 -122 86 -280 6 -19 18 -50 78 -205 83 -211 234 -517 329 -665 10
-16 23 -39 28 -50 15 -33 182 -280 192 -283 5 -2 9 -8 9 -13 0 -11 187 -252
231 -298 16 -17 29 -35 29 -40 0 -6 -21 -32 -47 -59 -27 -28 -88 -93 -136
-145 -48 -52 -111 -119 -140 -150 -29 -30 -104 -110 -167 -177 -63 -67 -141
-150 -173 -184 -32 -33 -97 -103 -145 -155 -48 -52 -109 -118 -137 -147 -27
-29 -74 -78 -104 -109 -40 -42 -50 -60 -42 -68 8 -8 30 7 84 60 165 162 317
309 502 488 109 105 250 242 315 305 65 63 152 147 192 187 l74 72 108 -110
107 -110 -46 -57 c-59 -72 -91 -134 -101 -197 -4 -28 -8 -52 -7 -55 0 -3 3
-24 7 -47 16 -121 120 -217 276 -256 82 -20 267 -13 336 13 13 5 24 7 24 5 0
-3 11 2 24 11 14 8 26 14 28 12 2 -1 30 11 62 27 42 21 61 26 64 17 2 -6 10
-12 18 -12 8 0 14 -4 14 -10 0 -5 5 -10 10 -10 6 0 27 -11 48 -23 76 -49 97
-61 102 -60 3 0 16 -7 30 -17 14 -9 50 -29 80 -44 30 -15 59 -32 65 -37 5 -5
10 -42 11 -82 2 -77 14 -367 19 -482 2 -38 4 -105 6 -147 1 -58 5 -78 15 -78
8 0 15 6 15 13 1 14 7 493 8 669 l1 117 113 61 c124 67 155 86 239 141 32 21
75 40 95 42 57 7 71 15 90 58 9 22 26 45 37 53 21 13 231 180 252 200 7 6 45
40 85 76 40 36 131 123 201 193 l128 129 44 -44 c24 -24 89 -85 144 -136 56
-52 128 -120 162 -152 33 -31 60 -57 60 -56 0 1 28 -25 63 -58 94 -91 297
-282 297 -281 0 1 24 -21 53 -49 30 -28 87 -82 128 -120 41 -38 109 -103 151
-143 75 -71 103 -88 96 -59 -3 13 -305 335 -352 375 -10 9 -28 27 -40 40 -12
13 -68 72 -126 132 -58 59 -202 208 -320 330 -118 122 -232 238 -252 259 -37
35 -37 37 -21 61 9 13 20 26 23 29 18 15 204 257 251 325 30 44 56 82 59 85
24 23 230 369 230 386 0 7 4 14 9 16 5 1 43 73 84 158 97 201 107 224 161 366
65 166 62 162 88 167 l23 4 -22 8 -21 7 19 56 c18 50 52 164 65 215 9 39 14
58 18 75 2 9 9 35 14 57 6 22 13 54 15 70 3 17 8 41 11 55 8 35 16 79 22 120
2 19 7 51 10 70 21 131 27 316 28 858 l1 504 55 57 c30 32 127 133 215 225 88
92 162 171 163 177 6 16 30 10 79 -20 45 -27 117 -56 173 -68 30 -7 186 -8
217 -1 38 7 37 16 -3 56 -86 87 -210 217 -227 238 -17 22 -17 24 20 62 208
216 279 290 413 431 85 89 158 170 162 179 21 54 -17 112 -74 112 -35 0 -38
-3 -368 -349 -91 -96 -192 -202 -226 -237 l-60 -63 -63 67 c-114 122 -214 222
-217 219 -4 -4 -13 -53 -20 -107 -12 -92 2 -186 39 -270 11 -25 21 -47 21 -50
1 -3 10 -17 20 -32 10 -15 16 -32 14 -37 -3 -8 -167 -183 -353 -376 -33 -35
-81 -84 -106 -111 -25 -27 -56 -55 -70 -61 -21 -11 -108 -42 -134 -48 -5 -1
-17 -5 -25 -8 -18 -7 -198 -44 -220 -46 -8 0 -31 -3 -50 -6 -41 -6 -342 -7
-385 -1 -16 2 -55 7 -85 11 -30 4 -58 9 -61 11 -3 1 -28 6 -55 10 -27 3 -52 8
-57 11 -4 2 -20 7 -35 10 -15 3 -31 6 -37 7 -5 2 -23 6 -40 10 -16 4 -37 10
-45 14 -8 3 -19 7 -25 8 -14 3 -12 2 -105 35 -47 16 -89 31 -95 33 -5 1 -21 8
-35 14 -14 6 -56 25 -95 41 -95 41 -319 155 -335 171 -3 3 -18 12 -35 20 -16
8 -34 18 -40 23 -5 4 -46 31 -90 60 l-80 52 0 259 1 259 66 18 c63 18 119 43
183 84 45 29 155 137 155 152 0 7 4 13 9 13 5 0 24 30 42 68 19 37 32 67 30
67 -3 0 1 9 7 21 16 30 36 138 35 194 0 177 -59 317 -187 444 -75 75 -150 124
-235 156 -57 21 -55 20 -76 20 -9 0 -29 14 -46 31 -29 30 -79 45 -109 32z
m184 -175 c81 -64 136 -132 180 -223 54 -110 69 -174 67 -279 -1 -99 -2 -105
-25 -183 l-18 -61 -72 -4 c-39 -2 -98 -1 -131 2 l-60 5 0 387 c0 214 4 388 9
388 4 0 27 -15 50 -32z m-1083 -6195 c18 -16 37 -33 43 -38 6 -6 36 -30 66
-55 30 -25 57 -47 60 -50 15 -16 211 -161 224 -166 9 -3 16 -10 16 -15 0 -9
-78 -47 -110 -54 -8 -2 -16 -4 -17 -5 -4 -3 -11 -5 -63 -15 -73 -13 -182 -12
-212 2 -16 8 -28 11 -28 8 0 -3 -17 3 -37 14 -115 59 -134 186 -49 319 24 37
63 82 71 82 3 0 19 -12 36 -27z"/>
</g>
</svg>
