<?xml version="1.0" encoding="utf-8"?>
<svg viewBox="105.284 224.78 383.252 389.1" xmlns="http://www.w3.org/2000/svg">
  <defs>
    <style type="text/css">
	.st0{display:none;}
	.st1{fill:#FFFFFF;}
	.st2{fill:#D3B72C;}
</style>
  </defs>
  <g id="Layer_1">
    <polygon points="303.57,613.86 302.07,613.88 298.93,529.43 304.43,529.35 &#9;"/>
    <path d="M203.92,350.65l-41.91-41.91c1.3-3.56,1.98-7.41,1.88-11.43c-0.17-7.21-2.78-13.79-7.02-18.98l-11.6,13.67l-32.49-32.49 c-1.71-1.71-4.49-1.71-6.21,0s-1.71,4.49,0,6.21l33,33l-22.39,26.4c4.78,2.75,10.35,4.26,16.26,4.12 c9.93-0.24,18.66-5.09,24.2-12.45l40.07,40.07L203.92,350.65z"/>
    <g>
      <path class="st1" d="M301.51,573.16c-0.81-0.37-1.59-0.74-2.36-1.12c-1.19-0.59-2.45-1.24-3.72-1.92 c-1.62-0.87-3.28-1.8-4.95-2.76c-1.98-1.15-4.01-2.38-6.02-3.65c-2.3-1.45-4.63-2.99-6.92-4.57c-2.57-1.77-5.15-3.63-7.66-5.53 c-2.77-2.09-5.54-4.29-8.24-6.53c-2.93-2.44-5.84-4.98-8.66-7.58c-3.03-2.79-6.03-5.7-8.92-8.65c-3.09-3.16-6.12-6.45-9.01-9.77 c-3.07-3.53-6.09-7.21-8.95-10.93c-3.02-3.93-5.95-8.01-8.72-12.13c-2.91-4.34-5.72-8.84-8.33-13.37 c-2.75-4.76-5.37-9.69-7.79-14.64c-2.53-5.19-4.91-10.56-7.08-15.96c-5.85-14.6-9.94-29.22-12.13-43.44 c-1.92-12.4-1.84-24.48-1.77-37.27c0.02-2.68,0.03-5.37,0.03-8.06c-0.01-5.92-0.02-11.84-0.04-17.76 c-0.01-3.94-0.03-7.89-0.05-11.83l0-0.38c5.21,3.14,18.62,9.76,39.29,9.76c0,0,0,0,0.01,0c25.88,0,53.53-10.26,82.19-30.48 c28.67,20.23,56.32,30.48,82.19,30.48c20.67,0,34.09-6.62,39.3-9.76l0,0.38c-0.02,3.94-0.04,7.89-0.05,11.83 c-0.02,5.92-0.04,11.84-0.04,17.76c0,2.69,0.01,5.37,0.03,8.05c0.08,12.79,0.15,24.87-1.77,37.28 c-2.2,14.22-6.28,28.83-12.13,43.44c-2.17,5.41-4.55,10.78-7.08,15.96c-2.42,4.96-5.04,9.88-7.79,14.64 c-2.62,4.53-5.42,9.03-8.33,13.37c-2.77,4.12-5.7,8.2-8.72,12.13c-2.86,3.72-5.87,7.4-8.95,10.93c-2.9,3.33-5.93,6.62-9.01,9.77 c-2.89,2.96-5.89,5.87-8.92,8.65c-2.82,2.59-5.73,5.14-8.66,7.58c-2.7,2.24-5.47,4.44-8.24,6.53c-2.52,1.9-5.1,3.76-7.66,5.53 c-2.29,1.58-4.62,3.12-6.92,4.57c-2,1.26-4.03,2.49-6.02,3.65c-1.67,0.97-3.33,1.9-4.95,2.76c-1.3,0.7-2.52,1.32-3.73,1.92 c-0.77,0.38-1.55,0.76-2.33,1.12c-0.07,0.03-0.13,0.05-0.2,0.08C301.63,573.2,301.57,573.18,301.51,573.16z"/>
      <path d="M301.68,316.4c28.62,20.01,56.26,30.15,82.19,30.15c18.46,0,31.3-5.22,37.79-8.68c-0.02,3.21-0.03,6.42-0.04,9.63 c-0.02,5.92-0.04,11.84-0.04,17.76c0,2.7,0.01,5.38,0.03,8.07c0.08,12.73,0.15,24.75-1.75,37.04 c-2.18,14.11-6.23,28.61-12.04,43.11c-2.15,5.37-4.52,10.71-7.03,15.86c-2.4,4.93-5.01,9.83-7.74,14.55 c-2.6,4.5-5.39,8.97-8.28,13.28c-2.75,4.09-5.66,8.15-8.67,12.05c-2.84,3.69-5.83,7.35-8.89,10.86c-2.88,3.31-5.89,6.57-8.96,9.71 c-2.87,2.93-5.85,5.83-8.86,8.6c-2.8,2.57-5.69,5.1-8.61,7.53c-2.68,2.23-5.43,4.41-8.19,6.49c-2.5,1.89-5.06,3.74-7.61,5.5 c-2.28,1.57-4.59,3.1-6.87,4.54c-2,1.26-4.01,2.48-5.97,3.62c-1.66,0.97-3.31,1.89-4.91,2.74c-1.29,0.69-2.5,1.31-3.68,1.9 c-0.68,0.34-1.3,0.63-1.87,0.9c-0.57-0.27-1.19-0.56-1.87-0.9c-1.19-0.59-2.39-1.21-3.68-1.9c-1.59-0.85-3.25-1.78-4.91-2.74 c-1.97-1.14-3.97-2.36-5.97-3.62c-2.28-1.44-4.59-2.97-6.87-4.54c-2.55-1.75-5.11-3.6-7.61-5.5c-2.76-2.08-5.51-4.27-8.19-6.49 c-2.91-2.42-5.81-4.95-8.61-7.53c-3.01-2.77-5.99-5.66-8.86-8.6c-3.06-3.14-6.08-6.4-8.96-9.71c-3.06-3.51-6.05-7.17-8.89-10.86 c-3-3.9-5.92-7.96-8.67-12.05c-2.89-4.31-5.68-8.78-8.28-13.28c-2.73-4.73-5.33-9.62-7.74-14.55c-2.51-5.16-4.88-10.49-7.03-15.86 c-5.81-14.5-9.86-29-12.04-43.11c-1.9-12.29-1.83-24.31-1.75-37.04c0.02-2.68,0.03-5.37,0.03-8.07 c-0.01-5.92-0.02-11.84-0.04-17.76c-0.01-3.21-0.03-6.42-0.04-9.63c6.48,3.46,19.32,8.68,37.79,8.68 C245.42,346.54,273.06,336.4,301.68,316.4 M301.68,312.73c-33.79,24.06-61.61,30.82-82.19,30.82c-26.34,0-40.82-11.05-40.82-11.05 c0.01,1.06,0.01,2.12,0.02,3.19c0.02,3.94,0.04,7.88,0.05,11.83c0.02,5.92,0.04,11.84,0.04,17.76c0.02,15.3-0.59,30.36,1.76,45.56 c2.32,15.01,6.58,29.68,12.22,43.77c2.18,5.44,4.55,10.8,7.12,16.06c2.44,5,5.05,9.92,7.84,14.74c2.64,4.58,5.44,9.06,8.39,13.45 c2.79,4.16,5.72,8.23,8.78,12.21c2.89,3.76,5.89,7.43,9.01,11c2.93,3.36,5.96,6.64,9.07,9.84c2.91,2.98,5.91,5.89,8.98,8.71 c2.84,2.61,5.75,5.16,8.72,7.62c2.71,2.26,5.48,4.45,8.3,6.58c2.53,1.91,5.1,3.77,7.72,5.57c2.29,1.58,4.62,3.12,6.97,4.6 c2,1.26,4.02,2.49,6.07,3.68c1.65,0.96,3.32,1.89,5,2.79c1.25,0.67,2.5,1.32,3.77,1.94c0.79,0.39,1.58,0.77,2.38,1.14 c0.06,0.03,0.82,0.31,0.82,0.37c0-0.06,0.76-0.34,0.82-0.37c0.8-0.37,1.59-0.75,2.38-1.14c1.27-0.63,2.52-1.28,3.77-1.94 c1.68-0.9,3.35-1.83,5-2.79c2.05-1.19,4.07-2.41,6.07-3.68c2.36-1.49,4.68-3.02,6.97-4.6c2.61-1.8,5.18-3.66,7.72-5.57 c2.82-2.13,5.58-4.32,8.3-6.58c2.97-2.47,5.88-5.01,8.72-7.62c3.07-2.82,6.06-5.73,8.98-8.71c3.12-3.19,6.14-6.47,9.07-9.84 c3.11-3.57,6.12-7.24,9.01-11c3.06-3.97,5.98-8.05,8.78-12.21c2.95-4.39,5.74-8.88,8.39-13.45c2.78-4.82,5.4-9.74,7.84-14.74 c2.57-5.27,4.94-10.62,7.12-16.06c5.65-14.09,9.9-28.76,12.22-43.77c2.35-15.19,1.74-30.26,1.76-45.56 c0.01-5.92,0.02-11.84,0.04-17.76c0.01-3.94,0.03-7.89,0.05-11.83c0.01-1.06,0.01-2.12,0.02-3.19c0,0-14.49,11.05-40.82,11.05 C363.29,343.54,335.48,336.79,301.68,312.73L301.68,312.73z"/>
    </g>
    <g>
      <path class="st2" d="M205.35,357.08l0.07-3.91l0-4.3l0.31,0l0.37-1c0.37-1.04-0.32-1.6-1.27-2.39c-0.99-0.81-1.75-1.48-2.27-1.99 c0.32,0.04,0.69,0.09,1.09,0.16c5.1,0.92,10.42,1.38,15.83,1.38c7.12,0,14.51-0.8,21.97-2.39l148.79,148.79 c-1.42,2.28-2.84,4.48-4.24,6.56c-2.77,4.12-5.7,8.2-8.72,12.13c-2.72,3.54-5.57,7.03-8.49,10.4L205.35,357.08z"/>
      <g>
        <path d="M240.97,344.28l147.37,147.37c-1.2,1.91-2.4,3.75-3.58,5.51c-2.75,4.09-5.66,8.15-8.67,12.05 c-2.37,3.09-4.85,6.14-7.39,9.12L206.86,356.47l0.06-3.28l0-0.03v-0.03v-3.11l0.59-1.66c0.39-1.1,0.14-1.96-0.33-2.65 c4.01,0.54,8.13,0.81,12.3,0.81C226.45,346.54,233.67,345.78,240.97,344.28 M241.94,341.01c-8.23,1.81-15.73,2.53-22.46,2.53 c-5.77,0-10.96-0.53-15.57-1.36c-0.93-0.17-1.65-0.24-2.2-0.24c-4.66,0,3.36,5.43,2.95,5.43c-0.06,0-0.29-0.11-0.75-0.36v6.13 l-0.08,4.55l165.03,165.03c0.2-0.23,0.41-0.45,0.61-0.68c3.11-3.57,6.12-7.24,9.01-11c3.06-3.97,5.98-8.05,8.78-12.21 c1.68-2.51,3.31-5.05,4.9-7.62L241.94,341.01L241.94,341.01z"/>
      </g>
    </g>
    <g>
      <path class="st2" d="M317.81,401.86l8.84-15.55h4.7l7.42-14.38h-9.94l8.56-16.74h56.33l0.21,0.03c4.31,0.73,12.22,4.52,11.3,13.66 c-1,9.97-8.69,19.04-16.14,19.04h-21.63l-7.09,13.94H317.81z"/>
      <path d="M393.51,357.69c0,0,10.15,1.71,9.23,10.95s-7.85,16.79-13.65,16.79c-5.8,0-32.39,0-32.39,0l-2,4.11h9.13l-5,9.82h-36.74 l6-10.55h4.77l10-19.38h-9.96l6-11.74H393.51 M393.93,352.69h-0.42h-54.59h-3.06l-1.39,2.72l-6,11.74l-3.72,7.28h8.17h1.75 l-4.84,9.38h-1.72h-2.91l-1.44,2.53l-6,10.55l-4.25,7.47h8.6h36.74h3.07l1.39-2.73l5-9.82l0.7-1.38h20.09 c8.79,0,17.49-9.95,18.62-21.29c1.02-10.18-7.44-15.37-13.37-16.37L393.93,352.69L393.93,352.69z"/>
    </g>
    <path d="M382.55,369.56h-19.19l-2,4.95h20.19c1.37,0,3.47-1.11,3.47-2.47S383.91,369.56,382.55,369.56z"/>
    <path d="M333.1,258.95c0-6.72-2.11-12.93-5.7-18.04v0.32c-3.17-4.63-7.55-8.37-12.68-10.76h0.23c-2.65-1.24-5.5-2.11-8.49-2.56 c-0.59-1.81-2.28-3.13-4.28-3.13c-2.5,0-4.53,2.03-4.53,4.53v42.04h-24.83c4.12,9.58,12.87,16.68,23.42,18.53 c-0.04,0.01-0.09,0.02-0.13,0.03c0.51,0.09,1.02,0.16,1.54,0.22v28.01h9.05v-28.17C321.66,287.56,333.1,274.59,333.1,258.95z M319.62,271.34h-12.92V231.9c9.25,5.46,15.47,15.52,15.47,27.04C322.16,263.35,321.25,267.54,319.62,271.34z"/>
    <path d="M487.29,268.37c-1.61-1.54-4.17-1.48-5.71,0.13l-29.81,31.22l-14-14.6c-0.85,2.68-1.31,5.53-1.31,8.49 c0,6.17,2,11.88,5.37,16.51l-25.63,26.84l5.84,5.58l25.43-26.63c4.73,3.63,10.65,5.79,17.07,5.79c2.54,0,5.01-0.34,7.35-0.98 l-14.54-15.16l30.06-31.47C488.96,272.46,488.9,269.91,487.29,268.37z"/>
    <polygon points="179.74,582.61 178.67,581.56 236.52,519.94 240.44,523.8 &#9;"/>
    <polygon points="426.37,581.09 425.33,582.16 363.71,524.31 367.57,520.39 &#9;"/>
  </g>
  <g id="Layer_3">
    <path d="M416.54,444.07H363.2c-0.66-8.44-8.64-6.79-8.64-6.79v3.49c0,0-3.76,0.2-10.02-0.53c-7.71-2.64-9.69-8.37-1.78-8.57 c7.91-0.2,6-2.9,6-2.9s-0.46-3.76-8.57-3.89c-8.9-0.33-10.29,3.43-10.29,3.43l-6.4-8.64h3.1l-0.07-4.75c0,0,4.22,3.56,10.15,3.23 c7.71-0.4,10.81-7.19,10.81-7.19s-7.12-0.13-9.96,0.13c-0.4-2.18,2.18-2.52,4-2.62c0.53-0.03,0.94-0.47,0.94-1 c0-0.52,0.01-1.06-0.04-1.58c-0.04-0.47-0.54-0.76-0.96-0.54c-0.32,0.17-0.64,0.32-0.95,0.53c-0.58,0.39-1.16,0.79-1.74,1.19 c-1.19,0.85-2.39,1.73-3.44,2.75c-5.08-3.16,2.57-8.77,8.77-8.84c6.2-0.07,12.46,3.1,12.46,3.1s1.98-6.79-8.31-10.09 c-16.09,0.26-17.47-2.7-20.31-8.04c-4.48-1.65-24.79,2.37-24.79,2.37l-9.03-10.02c0,0,2.7,12.99,3.47,15.56 c-5.69-1.05-5.85,4.75-3.93,6c-6.07,0.33-6.26,3.89-6.26,3.89l4.22,0.07c0,0,0.07,1.19-0.26,2.18c-4.29-0.26-5.74,3.76-5.74,3.76 h3.89c0,0,0.39,1.12,0,2.57c-6.13,0.79-5.74,4.35-5.81,4.42c2.41,0.4,2.5,1.86,1.57,2.94c-1.03,1.2-2.89,1.29-4.15,0.32 c-9.25-7.07-5.93-21.09-5.93-24.37c-5.6,1.25,0.33-9.96,0.33-9.96l-3.3,0.07c0,0,0.07-5.87,0.66-8.84 c3.36-3.23,3.69-9.49,3.69-9.49s-1.19-0.53-3.03-0.26c-0.26-4.48,6.59-18.33,6.59-18.33s-0.92,0.26-5.67,1.45 c4.35-18.99,15.3-27.43,15.03-27.69c-31.65,12.53-27.03,79.38-23.74,95.6c-48-16.62-63.56-95.6-63.56-95.6 c-3.76,4.68-4.25,25.98-1.09,31.32c-5.93-0.99-10.58-9.49-10.58-9.49s-0.3,4.75-0.3,12.16s13.85,19.29,14.74,22.55 c-12.76,0.3-12.76-5.84-16.32-4.85c0.59,15.63,17.7,16.02,15.03,18.69c-15.33,0.99-10.78-5.24-15.03-2.77 c1.98,13.55,14.93,11.77,14.93,11.77s1.48,0.99,0.49,2.47c-9.1,3.66-11.57-2.77-14.14-1.19c0.79,9.99,13.25,13.75,13.25,13.75 s-8.9-0.69-11.57-0.49c2.47,6.33,7.91,10.38,16.62,9.89c-2.77,7.81-11.08,5.44-10.29,7.22c7.22,9.59,17.51,9.69,17.51,9.69 s-7.91,3.46-8.7,5.44c8.7,6.13,16.91,3.86,16.91,3.86s-4.75,5.44-4.45,8.11c7.12,0.1,12.46-0.49,15.53-1.68 c0.69,3.46-5.44,8.51-5.64,8.51c13.65,1.98,16.02-1.29,16.02-1.29s-2.37,8.8-2.27,9c13.71-0.74,15.61-3.53,15.8-3.91 c-0.22,0.47-3.73,8.07-3.54,8.16c11.77,0,15.63-2.37,15.63-2.37l-2.97,5.24c0,0,4.15,0.99,9.89-0.89 c-5.84,12.56,1.68,38.08,1.68,38.08s-2.47,4.35-18.89,10.58c-9.81,3.72-22.26,14.47-19.24,26.22c2.26,8.79,11.65,12.35,19.93,12.35 c21.46,0,30.46-15.13,33.13-19.19c1.68,6.63,9.89,15.03,9.89,15.03h6.82l-1.65-3.96c0,0,10.95,1.19,17.18,1.19s5.04-9.1,5.04-9.1 s-3.86,1.78-12.26,1.58c-12.86-0.89-14.24-9.49-13.55-17.01c17.51-14.54,29.77-10.35,38.47-10.68c8.57-0.4,4.75,6.07,9.82,6.73 c5.21,0.26,9.1-2.7,8.57-7.65c-1.52-4.95-13.58-4.09-13.58-4.09s-5.93,0.07-19.32,0.07c-13.38,0-23.08,9.76-23.08,9.76h-2.31 c0,0-0.46-1.98,0.46-6.66c9.49-5.01,15.82-16.09,15.82-16.09s0.92,9.96,6.2,10.29c8.44-0.59,10.62-9.49,10.62-9.49v-10.62 l5.21-10.02l6.59,0.13c0,0-5.27-4.95-3.96-6.99c6.79-2.31,6.92,3.16,9.43,3.03c-0.33-7.32-7.52-11.01-12.46-12.46 c-4.81,0-5.14,5.87-5.8,11.6c-2.9,3.76-6.59,7.45-8.51,8.9c0-11.74-6.73-17.08-11.41-17.08c-2.08,0-4.59,0.74-5.14,3.03 c-0.1,0.21-2.67,0-3.1-0.01c3.49-3.58,6.88-7.28,10.29-10.94c-0.07-4.62,3.03-4.75,3.03-4.75s0.79,2.57,6.26,2.57 c8.04,0,7.98-5.21,7.98-5.21l0.26-11.21l18.4-0.92v3.64c6.13,0,8.64-6.28,8.64-6.28l53.34-1V444.07z M278.08,558.82 c-6.3,5.28-23.57,8.43-29.19,0.74c-2.42-3.32-1.65-8,0.13-11.43c3.57-6.9,10.78-10.81,17.61-13.79c3.5-1.52,7.11-2.78,10.78-3.81 c0.6-0.17,4.45-0.64,4.75-1.18c-1.72,3.08-4.42,8.17-2.9,11.69c1.08,2.51,3.69,3.4,6.06,4.31c0.5,0.19,5.01,2.05,5.41,1.61 C290.74,546.96,285.79,552.36,278.08,558.82z"/>
    <path class="st1" d="M321.68,393.1c0,0,5.24-0.59,5.44,2.52c-0.79,1.58-5.44,0-5.44,0S320.79,393.99,321.68,393.1z"/>
  </g>
</svg>